<?xml version="1.0" standalone="no"?>
<!DOCTYPE svg PUBLIC "-//W3C//DTD SVG 20010904//EN"
 "http://www.w3.org/TR/2001/REC-SVG-20010904/DTD/svg10.dtd">
<svg version="1.0" xmlns="http://www.w3.org/2000/svg"
 width="160.000000pt" height="160.000000pt" viewBox="0 0 160.000000 160.000000"
 preserveAspectRatio="xMidYMid meet">
<metadata>
Created by potrace 1.14, written by Peter Selinger 2001-2017
</metadata>
<g transform="translate(0.000000,160.000000) scale(0.100000,-0.100000)"
fill="#000000" stroke="none">
<path d="M291 1390 c-4 -3 -7 -35 -6 -72 1 -55 -2 -68 -14 -69 -63 -4 -56 8
-60 -111 l-1 -38 -47 1 c-27 1 -60 1 -74 0 l-26 -1 1 -222 1 -223 25 -1 c14
-1 31 -2 38 -3 7 0 12 -15 12 -36 0 -33 2 -35 35 -35 21 0 35 -5 36 -12 0 -7
1 -40 2 -73 l2 -60 108 0 107 0 0 -32 0 -33 -72 0 -73 0 2 -92 c0 -51 1 -103
2 -114 1 -20 6 -21 109 -21 59 0 110 3 113 8 3 5 4 36 3 69 -3 68 2 72 83 69
26 -1 68 -1 93 0 l45 1 0 72 0 71 58 1 c32 1 63 -1 67 -4 5 -3 10 -36 12 -74
l3 -69 105 -1 105 -1 1 -60 c1 -33 2 -65 3 -71 2 -16 219 -16 223 0 2 6 3 56
3 111 l0 100 -72 3 c-59 2 -72 6 -76 21 -10 38 7 45 115 46 l103 0 2 40 c1 22
2 55 2 73 1 30 3 32 35 32 33 0 35 2 38 37 3 35 5 37 38 37 l35 1 1 223 1 222
-26 1 c-14 1 -47 1 -73 0 -53 -1 -52 -4 -48 100 1 39 -2 46 -17 46 -62 0 -60
-2 -58 68 1 35 -1 68 -4 72 -9 13 -221 11 -222 -2 -1 -5 -1 -22 -1 -37 l-1
-28 -108 0 -109 0 -1 -47 c-2 -103 1 -97 -54 -99 -60 -2 -86 3 -84 19 1 7 1
38 0 70 l-1 57 -109 0 c-106 0 -108 1 -108 23 -1 55 4 52 -109 52 -58 0 -109
-2 -113 -5z"/>
</g>
</svg>
